<?xml version="1.0" encoding="UTF-8" standalone="no"?>
<!-- Created with Inkscape (http://www.inkscape.org/) -->

<svg
   xmlns:dc="http://purl.org/dc/elements/1.1/"
   xmlns:cc="http://creativecommons.org/ns#"
   xmlns:rdf="http://www.w3.org/1999/02/22-rdf-syntax-ns#"
   xmlns:svg="http://www.w3.org/2000/svg"
   xmlns="http://www.w3.org/2000/svg"
   xmlns:sodipodi="http://sodipodi.sourceforge.net/DTD/sodipodi-0.dtd"
   xmlns:inkscape="http://www.inkscape.org/namespaces/inkscape"
   width="495"
   height="765"
   id="svg2"
   version="1.1"
   inkscape:version="0.48.2 r9819"
   sodipodi:docname="map.svg"
   inkscape:export-filename="/Users/stevenhayes/Desktop/guerilla minigolf/map.png"
   inkscape:export-xdpi="90"
   inkscape:export-ydpi="90">
  <defs
     id="defs4" />
  <sodipodi:namedview
     id="base"
     pagecolor="#ffffff"
     bordercolor="#666666"
     borderopacity="1.0"
     inkscape:pageopacity="0.0"
     inkscape:pageshadow="2"
     inkscape:zoom="1"
     inkscape:cx="306.40658"
     inkscape:cy="224.64695"
     inkscape:document-units="px"
     inkscape:current-layer="layer1"
     showgrid="false"
     units="in"
     inkscape:window-width="1280"
     inkscape:window-height="696"
     inkscape:window-x="0"
     inkscape:window-y="0"
     inkscape:window-maximized="1" />
  <metadata
     id="metadata7">
    <rdf:RDF>
      <cc:Work
         rdf:about="">
        <dc:format>image/svg+xml</dc:format>
        <dc:type
           rdf:resource="http://purl.org/dc/dcmitype/StillImage" />
        <dc:title></dc:title>
      </cc:Work>
    </rdf:RDF>
  </metadata>
  <g
     inkscape:label="Layer 1"
     inkscape:groupmode="layer"
     id="layer1"
     transform="translate(0,-287.35975)">
    <path
       style="fill:none;stroke:#000000;stroke-width:1px;stroke-linecap:butt;stroke-linejoin:miter;stroke-opacity:1"
       d="m 365.71429,42.142857 c 0,190.476193 0,380.952383 0,571.428573 -0.47619,3.33333 -1.01093,6.65883 -1.42858,10 -0.30739,2.45916 0,6.05481 0,8.57143 0,6.66666 0,13.33333 0,20 0,17.61904 0,35.23809 0,52.85714"
       id="path2985"
       inkscape:connector-curvature="0"
       transform="translate(0,287.35975)" />
    <path
       style="fill:none;stroke:#000000;stroke-width:1px;stroke-linecap:butt;stroke-linejoin:miter;stroke-opacity:1"
       d="m 68.690373,150.82725 c 129.299527,0 258.599047,0 387.898577,0"
       id="path2987"
       inkscape:connector-curvature="0"
       transform="translate(0,287.35975)" />
    <path
       style="fill:none;stroke:#000000;stroke-width:1px;stroke-linecap:butt;stroke-linejoin:miter;stroke-opacity:1"
       d="m 72.730983,964.89778 c 90.913727,0 181.827457,0 272.741187,0 18.85618,0 37.71236,0 56.56854,0 6.06092,0 12.12183,0 18.18275,0 1.34687,0 2.69374,0 4.04061,0 1.34687,0 2.76286,0.42592 4.04061,0 0.90351,-0.30117 1.1168,-1.71913 2.0203,-2.0203 1.04081,-0.34694 12.00502,0 14.14214,0"
       id="path2989"
       inkscape:connector-curvature="0" />
    <flowRoot
       xml:space="preserve"
       id="flowRoot2991"
       style="font-size:24px;font-style:normal;font-weight:normal;line-height:125%;letter-spacing:0px;word-spacing:0px;fill:#000000;fill-opacity:1;stroke:none;font-family:Sans"
       transform="matrix(0,1,-1,0,639.3,603.77255)"><flowRegion
         id="flowRegion2993"><rect
           id="rect2995"
           width="337.39096"
           height="212.13203"
           x="-292.94424"
           y="243.76129"
           style="font-size:24px" /></flowRegion><flowPara
         id="flowPara2997"
         style="font-style:normal;font-variant:normal;font-weight:normal;font-stretch:normal;font-family:American Typewriter;-inkscape-font-specification:American Typewriter">Limestone</flowPara></flowRoot>    <flowRoot
       xml:space="preserve"
       id="flowRoot2999"
       style="font-size:24px;font-style:normal;font-weight:normal;line-height:125%;letter-spacing:0px;word-spacing:0px;fill:#000000;fill-opacity:1;stroke:none;font-family:Sans"
       transform="translate(786.92505,72.500303)"><flowRegion
         id="flowRegion3001"><rect
           id="rect3003"
           width="466.69049"
           height="181.82745"
           x="-468.71078"
           y="334.67502"
           style="font-size:24px" /></flowRegion><flowPara
         id="flowPara3005"
         style="font-style:normal;font-variant:normal;font-weight:normal;font-stretch:normal;font-family:American Typewriter;-inkscape-font-specification:American Typewriter">5th</flowPara></flowRoot>    <flowRoot
       xml:space="preserve"
       id="flowRoot3007"
       style="fill:black;stroke:none;stroke-opacity:1;stroke-width:1px;stroke-linejoin:miter;stroke-linecap:butt;fill-opacity:1;font-family:Sans;font-style:normal;font-weight:normal;font-size:24px;line-height:125%;letter-spacing:0px;word-spacing:0px"><flowRegion
         id="flowRegion3009"><rect
           id="rect3011"
           width="414.16254"
           height="200.01021"
           x="-569.72601"
           y="366.99991"
           style="font-size:24px" /></flowRegion><flowPara
         id="flowPara3013"></flowPara></flowRoot>    <text
       xml:space="preserve"
       style="font-size:40px;font-style:normal;font-weight:normal;line-height:125%;letter-spacing:0px;word-spacing:0px;fill:#000000;fill-opacity:1;stroke:none;font-family:Sans"
       x="223.46196"
       y="958.83685"
       id="text3015"
       sodipodi:linespacing="125%"><tspan
         sodipodi:role="line"
         id="tspan3017"
         x="223.46196"
         y="958.83685"
         style="font-size:24px;font-style:normal;font-variant:normal;font-weight:normal;font-stretch:normal;font-family:American Typewriter;-inkscape-font-specification:American Typewriter">Main</tspan></text>
    <flowRoot
       xml:space="preserve"
       id="flowRoot3057"
       style="fill:black;stroke:none;stroke-opacity:1;stroke-width:1px;stroke-linejoin:miter;stroke-linecap:butt;fill-opacity:1;font-family:Sans;font-style:normal;font-weight:normal;font-size:40px;line-height:125%;letter-spacing:0px;word-spacing:0px"><flowRegion
         id="flowRegion3059"><rect
           id="rect3061"
           width="412.14224"
           height="216.17264"
           x="-531.34021"
           y="389.22327" /></flowRegion><flowPara
         id="flowPara3063"></flowPara></flowRoot>    <flowRoot
       xml:space="preserve"
       id="flowRoot3065"
       style="fill:black;stroke:none;stroke-opacity:1;stroke-width:1px;stroke-linejoin:miter;stroke-linecap:butt;fill-opacity:1;font-family:Sans;font-style:normal;font-weight:normal;font-size:40px;line-height:125%;letter-spacing:0px;word-spacing:0px"><flowRegion
         id="flowRegion3067"><rect
           id="rect3069"
           width="351.53308"
           height="206.07112"
           x="-620.23364"
           y="364.97958" /></flowRegion><flowPara
         id="flowPara3071"></flowPara></flowRoot>    <path
       sodipodi:type="arc"
       style="fill:#000000"
       id="path3081"
       sodipodi:cx="27"
       sodipodi:cy="81"
       sodipodi:rx="18"
       sodipodi:ry="18"
       d="M 45,81 A 18,18 0 1 1 9,81 18,18 0 1 1 45,81 z"
       transform="translate(400,285.35975)" />
    <flowRoot
       xml:space="preserve"
       id="flowRoot3083"
       style="font-size:24px;font-style:normal;font-weight:normal;line-height:125%;letter-spacing:0px;word-spacing:0px;fill:#ffffff;fill-opacity:1;stroke:none;font-family:Sans"
       transform="translate(382,108.35975)"><flowRegion
         id="flowRegion3085"><rect
           id="rect3087"
           width="153"
           height="92"
           x="37"
           y="242"
           style="font-size:24px;fill:#ffffff" /></flowRegion><flowPara
         id="flowPara3089">1</flowPara></flowRoot>    <path
       style="fill:none;stroke:#000000;stroke-width:1px;stroke-linecap:butt;stroke-linejoin:miter;stroke-opacity:1"
       d="m 63.414214,627.37699 c 26,0 51.999996,0 77.999996,0 8.33333,0 16.67073,0.26029 25,0 5.67369,-0.1773 11.32631,-0.8227 17,-1 4.99756,-0.15617 10,0 15,0 4.66667,0 9.33333,0 14,0 24,0 48,0 72,0 53.66667,0 107.33333,0 161,0"
       id="path3117"
       inkscape:connector-curvature="0" />
    <text
       xml:space="preserve"
       style="font-size:40px;font-style:normal;font-weight:normal;line-height:125%;letter-spacing:0px;word-spacing:0px;fill:#000000;fill-opacity:1;stroke:none;font-family:Sans"
       x="317.12341"
       y="620.92059"
       id="text3144"
       sodipodi:linespacing="125%"><tspan
         sodipodi:role="line"
         id="tspan3146"
         x="317.12341"
         y="620.92059"
         style="font-size:24px;font-style:normal;font-variant:normal;font-weight:normal;font-stretch:normal;font-family:American Typewriter;-inkscape-font-specification:American Typewriter">3rd</tspan></text>
    <path
       transform="translate(362.52334,523.55065)"
       d="M 45,81 A 18,18 0 1 1 9,81 18,18 0 1 1 45,81 z"
       sodipodi:ry="18"
       sodipodi:rx="18"
       sodipodi:cy="81"
       sodipodi:cx="27"
       id="path3148"
       style="fill:#000000"
       sodipodi:type="arc" />
    <flowRoot
       transform="translate(344.52334,346.55065)"
       style="font-size:24px;font-style:normal;font-weight:normal;line-height:125%;letter-spacing:0px;word-spacing:0px;fill:#ffffff;fill-opacity:1;stroke:none;font-family:Sans"
       id="flowRoot3150"
       xml:space="preserve"><flowRegion
         id="flowRegion3152"><rect
           style="font-size:24px;fill:#ffffff"
           y="242"
           x="37"
           height="92"
           width="153"
           id="rect3154" /></flowRegion><flowPara
         id="flowPara3156">2</flowPara></flowRoot>    <path
       style="fill:none;stroke:#000000;stroke-width:1px;stroke-linecap:butt;stroke-linejoin:miter;stroke-opacity:1"
       d="m 365.57421,662.63984 c 35.82674,0 71.65348,0 107.48023,0"
       id="path3158"
       inkscape:connector-curvature="0" />
    <text
       sodipodi:linespacing="125%"
       id="text3160"
       y="656.98303"
       x="368.40262"
       style="font-size:40px;font-style:normal;font-weight:normal;line-height:125%;letter-spacing:0px;word-spacing:0px;fill:#000000;fill-opacity:1;stroke:none;font-family:Sans"
       xml:space="preserve"><tspan
         style="font-size:24px;font-style:normal;font-variant:normal;font-weight:normal;font-stretch:normal;font-family:American Typewriter;-inkscape-font-specification:American Typewriter"
         y="656.98303"
         x="368.40262"
         id="tspan3162"
         sodipodi:role="line">Huston</tspan></text>
    <path
       style="fill:none;stroke:#000000;stroke-width:1px;stroke-linecap:butt;stroke-linejoin:miter;stroke-opacity:1"
       d="m 365.57421,697.99518 c 6.59966,0 13.19932,0 19.79899,0 21.2132,0 42.4264,0 63.63961,0 5.65685,0 11.3137,0 16.97056,0 1.41421,0 2.82843,0 4.24264,0 0.2357,0 0.54044,0.16666 0.70711,0 1.17851,-1.17852 -2.59273,-0.70711 1.41421,-0.70711 0.19729,0 4.39104,0 2.12132,0"
       id="path3164"
       inkscape:connector-curvature="0" />
    <text
       xml:space="preserve"
       style="font-size:40px;font-style:normal;font-weight:normal;line-height:125%;letter-spacing:0px;word-spacing:0px;fill:#000000;fill-opacity:1;stroke:none;font-family:Sans"
       x="368.40262"
       y="690.92413"
       id="text3166"
       sodipodi:linespacing="125%"><tspan
         sodipodi:role="line"
         id="tspan3168"
         x="368.40262"
         y="690.92413"
         style="font-size:24px;font-style:normal;font-variant:normal;font-weight:normal;font-stretch:normal;font-family:American Typewriter;-inkscape-font-specification:American Typewriter">Noble</tspan></text>
    <path
       style="fill:none;stroke:#000000;stroke-width:1px;stroke-linecap:butt;stroke-linejoin:miter;stroke-opacity:1"
       d="m 364.8671,734.76473 c 8.72098,0 17.44197,0 26.16295,0 0.94281,0 1.88562,0 2.82843,0 1.17851,0 2.36287,0.11727 3.53553,0 1.19589,-0.11959 2.33784,-0.6073 3.53554,-0.70711 2.34888,-0.19574 4.71404,0 7.07106,0 6.59967,0 13.19933,0 19.79899,0 16.26346,0 32.52691,0 48.79037,0"
       id="path3170"
       inkscape:connector-curvature="0" />
    <text
       sodipodi:linespacing="125%"
       id="text3172"
       y="726.98657"
       x="334.46149"
       style="font-size:40px;font-style:normal;font-weight:normal;line-height:125%;letter-spacing:0px;word-spacing:0px;fill:#000000;fill-opacity:1;stroke:none;font-family:Sans"
       xml:space="preserve"><tspan
         style="font-size:24px;font-style:normal;font-variant:normal;font-weight:normal;font-stretch:normal;font-family:American Typewriter;-inkscape-font-specification:American Typewriter"
         y="726.98657"
         x="334.46149"
         id="tspan3174"
         sodipodi:role="line">Constitution</tspan></text>
    <path
       sodipodi:type="arc"
       style="fill:#000000"
       id="path3176"
       sodipodi:cx="27"
       sodipodi:cy="81"
       sodipodi:rx="18"
       sodipodi:ry="18"
       d="M 45,81 A 18,18 0 1 1 9,81 18,18 0 1 1 45,81 z"
       transform="translate(397.17157,674.16439)" />
    <flowRoot
       xml:space="preserve"
       id="flowRoot3178"
       style="font-size:24px;font-style:normal;font-weight:normal;line-height:125%;letter-spacing:0px;word-spacing:0px;fill:#ffffff;fill-opacity:1;stroke:none;font-family:Sans"
       transform="translate(379.17157,497.16439)"><flowRegion
         id="flowRegion3180"><rect
           id="rect3182"
           width="153"
           height="92"
           x="37"
           y="242"
           style="font-size:24px;fill:#ffffff" /></flowRegion><flowPara
         id="flowPara3184">4</flowPara></flowRoot>    <path
       style="fill:none;stroke:#000000;stroke-width:1px;stroke-linecap:butt;stroke-linejoin:miter;stroke-opacity:1"
       d="m 458.20519,208.50696 c -1.41421,0.23571 -2.81768,0.54878 -4.24264,0.70711 -1.40556,0.15617 -2.82842,0 -4.24264,0 -3.53553,0 -7.07106,0 -10.6066,0 -9.42809,0 -18.85618,0 -28.28427,0 -29.22708,0 -58.45416,0 -87.68124,0 -87.68124,0 -175.36248,0 -263.043724,0"
       id="path3186"
       inkscape:connector-curvature="0"
       transform="translate(0,287.35975)" />
    <flowRoot
       transform="translate(787.75348,133.31149)"
       style="font-size:24px;font-style:normal;font-weight:normal;line-height:125%;letter-spacing:0px;word-spacing:0px;fill:#000000;fill-opacity:1;stroke:none;font-family:Sans"
       id="flowRoot3188"
       xml:space="preserve"><flowRegion
         id="flowRegion3190"><rect
           style="font-size:24px"
           y="334.67502"
           x="-468.71078"
           height="181.82745"
           width="466.69049"
           id="rect3192" /></flowRegion><flowPara
         style="font-style:normal;font-variant:normal;font-weight:normal;font-stretch:normal;font-family:American Typewriter;-inkscape-font-specification:American Typewriter"
         id="flowPara3410">4th</flowPara></flowRoot>    <path
       style="fill:none;stroke:#000000;stroke-width:1px;stroke-linecap:butt;stroke-linejoin:miter;stroke-opacity:1"
       d="m 216,45 c 0,176.66667 0,353.33333 0,530 0,30.66667 0,61.33333 0,92 0,7.33333 0,14.66667 0,22 0,1.4176 -0.25855,11.4829 0,12 0.42164,0.84327 1.33333,1.33333 2,2"
       id="path3196"
       inkscape:connector-curvature="0"
       transform="translate(0,287.35975)" />
    <path
       style="fill:none;stroke:#000000;stroke-width:1px;stroke-linecap:butt;stroke-linejoin:miter;stroke-opacity:1"
       d="m 74,47 c 0,158.66667 0,317.33333 0,476 0,39.33333 0,78.66667 0,118 0,13.33333 0,26.66667 0,40 0,5.33333 0,2.66667 0,8 0,0.66667 0,1.33333 0,2 0,0.66667 0.666667,2 0,2 -0.666667,0 0,-1.33333 0,-2"
       id="path3198"
       inkscape:connector-curvature="0"
       transform="translate(0,287.35975)" />
    <path
       transform="translate(163.17157,436.16439)"
       d="M 45,81 A 18,18 0 1 1 9,81 18,18 0 1 1 45,81 z"
       sodipodi:ry="18"
       sodipodi:rx="18"
       sodipodi:cy="81"
       sodipodi:cx="27"
       id="path3208"
       style="fill:#000000"
       sodipodi:type="arc" />
    <flowRoot
       transform="translate(145.17157,259.16439)"
       style="font-size:24px;font-style:normal;font-weight:normal;line-height:125%;letter-spacing:0px;word-spacing:0px;fill:#ffffff;fill-opacity:1;stroke:none;font-family:Sans"
       id="flowRoot3210"
       xml:space="preserve"><flowRegion
         id="flowRegion3212"><rect
           style="font-size:24px;fill:#ffffff"
           y="242"
           x="37"
           height="92"
           width="153"
           id="rect3214" /></flowRegion><flowPara
         id="flowPara3216">6</flowPara></flowRoot>    <flowRoot
       transform="matrix(0,1,-1,0,491.3,621.77255)"
       style="font-size:24px;font-style:normal;font-weight:normal;line-height:125%;letter-spacing:0px;word-spacing:0px;fill:#000000;fill-opacity:1;stroke:none;font-family:Sans"
       id="flowRoot3218"
       xml:space="preserve"><flowRegion
         id="flowRegion3220"><rect
           style="font-size:24px"
           y="243.76129"
           x="-292.94424"
           height="212.13203"
           width="337.39096"
           id="rect3222" /></flowRegion><flowPara
         style="font-style:normal;font-variant:normal;font-weight:normal;font-stretch:normal;font-family:American Typewriter;-inkscape-font-specification:American Typewriter"
         id="flowPara3224">Upper</flowPara></flowRoot>    <flowRoot
       xml:space="preserve"
       id="flowRoot3226"
       style="font-size:24px;font-style:normal;font-weight:normal;line-height:125%;letter-spacing:0px;word-spacing:0px;fill:#000000;fill-opacity:1;stroke:none;font-family:Sans"
       transform="matrix(0,1,-1,0,351.3,597.77255)"><flowRegion
         id="flowRegion3228"><rect
           id="rect3230"
           width="337.39096"
           height="212.13203"
           x="-292.94424"
           y="243.76129"
           style="font-size:24px" /></flowRegion><flowPara
         id="flowPara3232"
         style="font-style:normal;font-variant:normal;font-weight:normal;font-stretch:normal;font-family:American Typewriter;-inkscape-font-specification:American Typewriter">Broadway</flowPara></flowRoot>    <path
       sodipodi:type="arc"
       style="fill:#000000"
       id="path3278"
       sodipodi:cx="27"
       sodipodi:cy="81"
       sodipodi:rx="18"
       sodipodi:ry="18"
       d="M 45,81 A 18,18 0 1 1 9,81 18,18 0 1 1 45,81 z"
       transform="translate(129.17157,436.16439)" />
    <flowRoot
       xml:space="preserve"
       id="flowRoot3280"
       style="font-size:24px;font-style:normal;font-weight:normal;line-height:125%;letter-spacing:0px;word-spacing:0px;fill:#ffffff;fill-opacity:1;stroke:none;font-family:Sans"
       transform="translate(111.17157,259.16439)"><flowRegion
         id="flowRegion3282"><rect
           id="rect3284"
           width="153"
           height="92"
           x="37"
           y="242"
           style="font-size:24px;fill:#ffffff" /></flowRegion><flowPara
         id="flowPara3286">5</flowPara></flowRoot>    <flowRoot
       xml:space="preserve"
       id="flowRoot3296"
       style="fill:black;stroke:none;stroke-opacity:1;stroke-width:1px;stroke-linejoin:miter;stroke-linecap:butt;fill-opacity:1;font-family:Sans;font-style:normal;font-weight:normal;font-size:40px;line-height:125%;letter-spacing:0px;word-spacing:0px"><flowRegion
         id="flowRegion3298"><rect
           id="rect3300"
           width="81"
           height="55"
           x="384"
           y="386" /></flowRegion><flowPara
         id="flowPara3302"></flowPara></flowRoot>    <flowRoot
       style="fill:black;stroke:none;stroke-opacity:1;stroke-width:1px;stroke-linejoin:miter;stroke-linecap:butt;fill-opacity:1;font-family:Sans;font-style:normal;font-weight:normal;font-size:40px;line-height:125%;letter-spacing:0px;word-spacing:0px"
       id="flowRoot3304"
       xml:space="preserve"><flowRegion
         id="flowRegion3306"><rect
           y="386"
           x="384"
           height="55"
           width="81"
           id="rect3308" /></flowRegion><flowPara
         id="flowPara3310"></flowPara></flowRoot>    <path
       transform="translate(429.17157,602.16439)"
       d="M 45,81 A 18,18 0 1 1 9,81 18,18 0 1 1 45,81 z"
       sodipodi:ry="18"
       sodipodi:rx="18"
       sodipodi:cy="81"
       sodipodi:cx="27"
       id="path3312"
       style="fill:#000000"
       sodipodi:type="arc" />
    <flowRoot
       transform="translate(411.17157,425.16439)"
       style="font-size:24px;font-style:normal;font-weight:normal;line-height:125%;letter-spacing:0px;word-spacing:0px;fill:#ffffff;fill-opacity:1;stroke:none;font-family:Sans"
       id="flowRoot3314"
       xml:space="preserve"><flowRegion
         id="flowRegion3316"><rect
           style="font-size:24px;fill:#ffffff"
           y="242"
           x="37"
           height="92"
           width="153"
           id="rect3318" /></flowRegion><flowPara
         id="flowPara3320">3</flowPara></flowRoot>    <path
       transform="translate(67.17157,475.16439)"
       d="M 45,81 A 18,18 0 1 1 9,81 18,18 0 1 1 45,81 z"
       sodipodi:ry="18"
       sodipodi:rx="18"
       sodipodi:cy="81"
       sodipodi:cx="27"
       id="path3322"
       style="fill:#000000"
       sodipodi:type="arc" />
    <flowRoot
       transform="translate(49.17157,298.16439)"
       style="font-size:24px;font-style:normal;font-weight:normal;line-height:125%;letter-spacing:0px;word-spacing:0px;fill:#ffffff;fill-opacity:1;stroke:none;font-family:Sans"
       id="flowRoot3324"
       xml:space="preserve"><flowRegion
         id="flowRegion3326"><rect
           style="font-size:24px;fill:#ffffff"
           y="242"
           x="37"
           height="92"
           width="153"
           id="rect3328" /></flowRegion><flowPara
         id="flowPara3330">7</flowPara></flowRoot>    <path
       sodipodi:type="arc"
       style="fill:#000000"
       id="path3332"
       sodipodi:cx="27"
       sodipodi:cy="81"
       sodipodi:rx="18"
       sodipodi:ry="18"
       d="M 45,81 A 18,18 0 1 1 9,81 18,18 0 1 1 45,81 z"
       transform="translate(94.17157,526.16439)" />
    <flowRoot
       xml:space="preserve"
       id="flowRoot3334"
       style="font-size:24px;font-style:normal;font-weight:normal;line-height:125%;letter-spacing:0px;word-spacing:0px;fill:#ffffff;fill-opacity:1;stroke:none;font-family:Sans"
       transform="translate(76.17157,349.16439)"><flowRegion
         id="flowRegion3336"><rect
           id="rect3338"
           width="153"
           height="92"
           x="37"
           y="242"
           style="font-size:24px;fill:#ffffff" /></flowRegion><flowPara
         id="flowPara3340">8</flowPara></flowRoot>    <path
       transform="translate(112.17157,498.16439)"
       d="M 45,81 A 18,18 0 1 1 9,81 18,18 0 1 1 45,81 z"
       sodipodi:ry="18"
       sodipodi:rx="18"
       sodipodi:cy="81"
       sodipodi:cx="27"
       id="path3342"
       style="fill:#000000"
       sodipodi:type="arc" />
    <flowRoot
       transform="translate(94.17157,321.16439)"
       style="font-size:24px;font-style:normal;font-weight:normal;line-height:125%;letter-spacing:0px;word-spacing:0px;fill:#ffffff;fill-opacity:1;stroke:none;font-family:Sans"
       id="flowRoot3344"
       xml:space="preserve"><flowRegion
         id="flowRegion3346"><rect
           style="font-size:24px;fill:#ffffff"
           y="242"
           x="37"
           height="92"
           width="153"
           id="rect3348" /></flowRegion><flowPara
         id="flowPara3350">9</flowPara></flowRoot>    <path
       sodipodi:type="arc"
       style="fill:#000000"
       id="path3352"
       sodipodi:cx="27"
       sodipodi:cy="81"
       sodipodi:rx="18"
       sodipodi:ry="18"
       d="M 45,81 A 18,18 0 1 1 9,81 18,18 0 1 1 45,81 z"
       transform="translate(128.17157,526.16439)" />
    <flowRoot
       xml:space="preserve"
       id="flowRoot3354"
       style="font-size:24px;font-style:normal;font-weight:normal;line-height:125%;letter-spacing:0px;word-spacing:0px;fill:#ffffff;fill-opacity:1;stroke:none;font-family:Sans"
       transform="translate(103.17157,350.16439)"><flowRegion
         id="flowRegion3356"><rect
           id="rect3358"
           width="153"
           height="92"
           x="37"
           y="242"
           style="font-size:24px;fill:#ffffff" /></flowRegion><flowPara
         id="flowPara3360">10</flowPara></flowRoot>    <path
       transform="translate(114.17157,568.16439)"
       d="M 45,81 A 18,18 0 1 1 9,81 18,18 0 1 1 45,81 z"
       sodipodi:ry="18"
       sodipodi:rx="18"
       sodipodi:cy="81"
       sodipodi:cx="27"
       id="path3362"
       style="fill:#000000"
       sodipodi:type="arc" />
    <flowRoot
       transform="translate(89.17157,392.16439)"
       style="font-size:24px;font-style:normal;font-weight:normal;line-height:125%;letter-spacing:0px;word-spacing:0px;fill:#ffffff;fill-opacity:1;stroke:none;font-family:Sans"
       id="flowRoot3364"
       xml:space="preserve"><flowRegion
         id="flowRegion3366"><rect
           style="font-size:24px;fill:#ffffff"
           y="242"
           x="37"
           height="92"
           width="153"
           id="rect3368" /></flowRegion><flowPara
         id="flowPara3370">11</flowPara></flowRoot>    <path
       sodipodi:type="arc"
       style="fill:#000000"
       id="path3372"
       sodipodi:cx="27"
       sodipodi:cy="81"
       sodipodi:rx="18"
       sodipodi:ry="18"
       d="M 45,81 A 18,18 0 1 1 9,81 18,18 0 1 1 45,81 z"
       transform="translate(117.17157,904.16439)" />
    <flowRoot
       xml:space="preserve"
       id="flowRoot3374"
       style="font-size:24px;font-style:normal;font-weight:normal;line-height:125%;letter-spacing:0px;word-spacing:0px;fill:#ffffff;fill-opacity:1;stroke:none;font-family:Sans"
       transform="translate(92.17157,728.16439)"><flowRegion
         id="flowRegion3376"><rect
           id="rect3378"
           width="153"
           height="92"
           x="37"
           y="242"
           style="font-size:24px;fill:#ffffff" /></flowRegion><flowPara
         id="flowPara3380">12</flowPara></flowRoot>    <flowRoot
       xml:space="preserve"
       id="flowRoot3382"
       style="fill:black;stroke:none;stroke-opacity:1;stroke-width:1px;stroke-linejoin:miter;stroke-linecap:butt;fill-opacity:1;font-family:Sans;font-style:normal;font-weight:normal;font-size:40px;line-height:125%;letter-spacing:0px;word-spacing:0px"><flowRegion
         id="flowRegion3384"><rect
           id="rect3386"
           width="71"
           height="56"
           x="111"
           y="672" /></flowRegion><flowPara
         id="flowPara3388"></flowPara></flowRoot>    <path
       transform="translate(121.17157,856.16439)"
       d="M 45,81 A 18,18 0 1 1 9,81 18,18 0 1 1 45,81 z"
       sodipodi:ry="18"
       sodipodi:rx="18"
       sodipodi:cy="81"
       sodipodi:cx="27"
       id="path3390"
       style="fill:#000000"
       sodipodi:type="arc" />
    <flowRoot
       transform="translate(96.17157,680.16439)"
       style="font-size:24px;font-style:normal;font-weight:normal;line-height:125%;letter-spacing:0px;word-spacing:0px;fill:#ffffff;fill-opacity:1;stroke:none;font-family:Sans"
       id="flowRoot3392"
       xml:space="preserve"><flowRegion
         id="flowRegion3394"><rect
           style="font-size:24px;fill:#ffffff"
           y="242"
           x="37"
           height="92"
           width="153"
           id="rect3396" /></flowRegion><flowPara
         id="flowPara3398">13</flowPara></flowRoot>    <path
       sodipodi:type="arc"
       style="fill:#000000"
       id="path3400"
       sodipodi:cx="27"
       sodipodi:cy="81"
       sodipodi:rx="18"
       sodipodi:ry="18"
       d="M 45,81 A 18,18 0 1 1 9,81 18,18 0 1 1 45,81 z"
       transform="translate(155.17157,862.16439)" />
    <flowRoot
       xml:space="preserve"
       id="flowRoot3402"
       style="font-size:24px;font-style:normal;font-weight:normal;line-height:125%;letter-spacing:0px;word-spacing:0px;fill:#ffffff;fill-opacity:1;stroke:none;font-family:Sans"
       transform="translate(130.17157,686.16439)"><flowRegion
         id="flowRegion3404"><rect
           id="rect3406"
           width="153"
           height="92"
           x="37"
           y="242"
           style="font-size:24px;fill:#ffffff" /></flowRegion><flowPara
         id="flowPara3408">14</flowPara></flowRoot>    <path
       style="fill:none;stroke:#000000;stroke-width:1px;stroke-linecap:butt;stroke-linejoin:miter;stroke-opacity:1"
       d="m 64,580 c 103.66667,0 207.33333,0 311,0 22.33333,0 44.66667,0 67,0 3,0 6,0 9,0 0.33333,0 0.7643,0.2357 1,0 0.2357,-0.2357 -0.2357,-0.7643 0,-1 0.2357,-0.2357 0.66667,0 1,0 0.94184,0 4.43114,0.18962 5,0 0.44721,-0.14907 0.57836,-0.78918 1,-1 0.29814,-0.14907 0.66667,0 1,0 0.66667,0 1.33333,0 2,0 1.66667,0 3.33333,0 5,0"
       id="path3414"
       inkscape:connector-curvature="0"
       transform="translate(0,287.35975)" />
    <text
       sodipodi:linespacing="125%"
       id="text3416"
       y="859.83685"
       x="220.46196"
       style="font-size:40px;font-style:normal;font-weight:normal;line-height:125%;letter-spacing:0px;word-spacing:0px;fill:#000000;fill-opacity:1;stroke:none;font-family:Sans"
       xml:space="preserve"><tspan
         style="font-size:24px;font-style:normal;font-variant:normal;font-weight:normal;font-stretch:normal;font-family:American Typewriter;-inkscape-font-specification:American Typewriter"
         y="859.83685"
         x="220.46196"
         id="tspan3418"
         sodipodi:role="line">Short</tspan></text>
    <path
       transform="translate(359.17157,760.16439)"
       d="M 45,81 A 18,18 0 1 1 9,81 18,18 0 1 1 45,81 z"
       sodipodi:ry="18"
       sodipodi:rx="18"
       sodipodi:cy="81"
       sodipodi:cx="27"
       id="path3420"
       style="fill:#000000"
       sodipodi:type="arc" />
    <flowRoot
       transform="translate(334.17157,584.16439)"
       style="font-size:24px;font-style:normal;font-weight:normal;line-height:125%;letter-spacing:0px;word-spacing:0px;fill:#ffffff;fill-opacity:1;stroke:none;font-family:Sans"
       id="flowRoot3422"
       xml:space="preserve"><flowRegion
         id="flowRegion3424"><rect
           style="font-size:24px;fill:#ffffff"
           y="242"
           x="37"
           height="92"
           width="153"
           id="rect3426" /></flowRegion><flowPara
         id="flowPara3428">15</flowPara></flowRoot>    <path
       sodipodi:type="arc"
       style="fill:#000000"
       id="path3430"
       sodipodi:cx="27"
       sodipodi:cy="81"
       sodipodi:rx="18"
       sodipodi:ry="18"
       d="M 45,81 A 18,18 0 1 1 9,81 18,18 0 1 1 45,81 z"
       transform="translate(359.17157,808.16439)" />
    <flowRoot
       xml:space="preserve"
       id="flowRoot3432"
       style="font-size:24px;font-style:normal;font-weight:normal;line-height:125%;letter-spacing:0px;word-spacing:0px;fill:#ffffff;fill-opacity:1;stroke:none;font-family:Sans"
       transform="translate(334.17157,632.16439)"><flowRegion
         id="flowRegion3434"><rect
           id="rect3436"
           width="153"
           height="92"
           x="37"
           y="242"
           style="font-size:24px;fill:#ffffff" /></flowRegion><flowPara
         id="flowPara3438">16</flowPara></flowRoot>    <path
       transform="translate(399.17157,905.16439)"
       d="M 45,81 A 18,18 0 1 1 9,81 18,18 0 1 1 45,81 z"
       sodipodi:ry="18"
       sodipodi:rx="18"
       sodipodi:cy="81"
       sodipodi:cx="27"
       id="path3440"
       style="fill:#000000"
       sodipodi:type="arc" />
    <flowRoot
       transform="translate(374.17157,729.16439)"
       style="font-size:24px;font-style:normal;font-weight:normal;line-height:125%;letter-spacing:0px;word-spacing:0px;fill:#ffffff;fill-opacity:1;stroke:none;font-family:Sans"
       id="flowRoot3442"
       xml:space="preserve"><flowRegion
         id="flowRegion3444"><rect
           style="font-size:24px;fill:#ffffff"
           y="242"
           x="37"
           height="92"
           width="153"
           id="rect3446" /></flowRegion><flowPara
         id="flowPara3448">17</flowPara></flowRoot>    <flowRoot
       xml:space="preserve"
       id="flowRoot3450"
       style="fill:black;stroke:none;stroke-opacity:1;stroke-width:1px;stroke-linejoin:miter;stroke-linecap:butt;fill-opacity:1;font-family:Sans;font-style:normal;font-weight:normal;font-size:40px;line-height:125%;letter-spacing:0px;word-spacing:0px"><flowRegion
         id="flowRegion3452"><rect
           id="rect3454"
           width="73"
           height="46"
           x="378"
           y="679" /></flowRegion><flowPara
         id="flowPara3456"></flowPara></flowRoot>    <flowRoot
       style="fill:black;stroke:none;stroke-opacity:1;stroke-width:1px;stroke-linejoin:miter;stroke-linecap:butt;fill-opacity:1;font-family:Sans;font-style:normal;font-weight:normal;font-size:40px;line-height:125%;letter-spacing:0px;word-spacing:0px"
       id="flowRoot3458"
       xml:space="preserve"><flowRegion
         id="flowRegion3460"><rect
           y="679"
           x="378"
           height="46"
           width="73"
           id="rect3462" /></flowRegion><flowPara
         id="flowPara3464"></flowPara></flowRoot>    <path
       sodipodi:type="arc"
       style="fill:#000000"
       id="path3466"
       sodipodi:cx="27"
       sodipodi:cy="81"
       sodipodi:rx="18"
       sodipodi:ry="18"
       d="M 45,81 A 18,18 0 1 1 9,81 18,18 0 1 1 45,81 z"
       transform="translate(368.17157,935.16439)" />
    <flowRoot
       xml:space="preserve"
       id="flowRoot3468"
       style="font-size:24px;font-style:normal;font-weight:normal;line-height:125%;letter-spacing:0px;word-spacing:0px;fill:#ffffff;fill-opacity:1;stroke:none;font-family:Sans"
       transform="translate(343.17157,759.16439)"><flowRegion
         id="flowRegion3470"><rect
           id="rect3472"
           width="153"
           height="92"
           x="37"
           y="242"
           style="font-size:24px;fill:#ffffff" /></flowRegion><flowPara
         id="flowPara3474">18</flowPara></flowRoot>    <path
       style="fill:none;stroke:#000000;stroke-width:1px;stroke-linecap:butt;stroke-linejoin:miter;stroke-opacity:1"
       d="m 412,731 c 20,0 40,0 60,0"
       id="path3478"
       inkscape:connector-curvature="0"
       transform="translate(0,287.35975)" />
    <path
       style="fill:none;stroke:#000000;stroke-width:1px;stroke-linecap:butt;stroke-linejoin:miter;stroke-opacity:1"
       d="m 459,716 c 6.84327,3.42164 4.41886,1.41886 8,5 0.33333,0.33333 0.57836,0.78918 1,1 0.29814,0.14907 0.70186,-0.14907 1,0 0.42164,0.21082 0.57836,0.78918 1,1 0.29814,0.14907 0.70186,-0.14907 1,0 1.84101,0.92051 0.15899,2.07949 2,3 0.29814,0.14907 0.70186,-0.14907 1,0 0.84327,0.42164 1.15673,1.57836 2,2 0.29814,0.14907 0.7643,-0.2357 1,0 0.2357,0.2357 -0.2357,0.7643 0,1 0.2357,0.2357 0.7643,-0.2357 1,0 0.2357,0.2357 -0.2357,0.7643 0,1 0.2357,0.2357 0.70186,-0.14907 1,0 0.42164,0.21082 0.57836,0.78918 1,1 0.29814,0.14907 0.7643,-0.2357 1,0 0.2357,0.2357 -0.2357,0.7643 0,1 0.2357,0.2357 0.7643,-0.2357 1,0 0.2357,0.2357 0.2357,0.7643 0,1 -0.2357,0.2357 -0.68377,-0.10541 -1,0 -0.70711,0.2357 -1.33333,0.66667 -2,1 -4.94281,2.4714 -2.58579,1.5286 -7,3 -1,0.33333 -2,0.66667 -3,1 -1,0.33333 -2.09612,0.45767 -3,1 -0.80845,0.48507 -1.21554,1.47702 -2,2 -0.27735,0.1849 -0.68377,-0.10541 -1,0 -0.70711,0.2357 -1.37983,0.58655 -2,1 -0.39223,0.26149 -0.55279,0.85093 -1,1 -0.63246,0.21082 -1.40372,-0.29814 -2,0 -2,1 -1.5,2 -3,3 -0.62017,0.41345 -1.33333,0.66667 -2,1"
       id="path3480"
       inkscape:connector-curvature="0"
       transform="translate(0,287.35975)" />
  </g>
</svg>
