<?xml version="1.0" encoding="UTF-8" standalone="no"?>
<!-- Created with Inkscape (http://www.inkscape.org/) -->

<svg
   xmlns:dc="http://purl.org/dc/elements/1.1/"
   xmlns:cc="http://creativecommons.org/ns#"
   xmlns:rdf="http://www.w3.org/1999/02/22-rdf-syntax-ns#"
   xmlns:svg="http://www.w3.org/2000/svg"
   xmlns="http://www.w3.org/2000/svg"
   xmlns:sodipodi="http://sodipodi.sourceforge.net/DTD/sodipodi-0.dtd"
   xmlns:inkscape="http://www.inkscape.org/namespaces/inkscape"
   width="495"
   height="765"
   id="svg2"
   version="1.1"
   inkscape:version="0.48.2 r9819"
   sodipodi:docname="New document 1">
  <defs
     id="defs4" />
  <sodipodi:namedview
     id="base"
     pagecolor="#ffffff"
     bordercolor="#666666"
     borderopacity="1.0"
     inkscape:pageopacity="0.0"
     inkscape:pageshadow="2"
     inkscape:zoom="1"
     inkscape:cx="323.93016"
     inkscape:cy="534.69942"
     inkscape:document-units="px"
     inkscape:current-layer="layer1"
     showgrid="false"
     units="in"
     inkscape:window-width="1280"
     inkscape:window-height="696"
     inkscape:window-x="0"
     inkscape:window-y="0"
     inkscape:window-maximized="1" />
  <metadata
     id="metadata7">
    <rdf:RDF>
      <cc:Work
         rdf:about="">
        <dc:format>image/svg+xml</dc:format>
        <dc:type
           rdf:resource="http://purl.org/dc/dcmitype/StillImage" />
        <dc:title></dc:title>
      </cc:Work>
    </rdf:RDF>
  </metadata>
  <g
     inkscape:label="Layer 1"
     inkscape:groupmode="layer"
     id="layer1"
     transform="translate(0,-287.35975)">
    <flowRoot
       xml:space="preserve"
       id="flowRoot2985"
       style="font-size:40px;font-style:normal;font-variant:normal;font-weight:normal;font-stretch:normal;line-height:125%;letter-spacing:0px;word-spacing:0px;fill:#000000;fill-opacity:1;stroke:none;font-family:American Typewriter;-inkscape-font-specification:American Typewriter"
       transform="translate(318.10929,41.20375)"><flowRegion
         id="flowRegion2987"><rect
           id="rect2989"
           width="1079.2994"
           height="363.55347"
           x="-299.17422"
           y="251.85942"
           style="font-style:normal;font-variant:normal;font-weight:normal;font-stretch:normal;font-family:American Typewriter;-inkscape-font-specification:American Typewriter" /></flowRegion><flowPara
         id="flowPara2991"
         style="font-size:48px">Scorecard</flowPara></flowRoot>    <path
       style="fill:none;stroke:#000000;stroke-width:1px;stroke-linecap:butt;stroke-linejoin:miter;stroke-opacity:1"
       d="m 34.083139,462.56713 c 26.509107,0 53.018215,0 79.527321,0 78.89615,0 157.79231,0 236.68846,0 23.98443,0 47.96886,0 71.95329,0 8.2052,0 16.4104,0 24.6156,0 0.52831,0 11.75843,0 5.68053,0"
       id="path2993"
       inkscape:connector-curvature="0" />
    <path
       style="fill:none;stroke:#000000;stroke-width:1px;stroke-linecap:butt;stroke-linejoin:miter;stroke-opacity:1"
       d="m 30.296123,508.01132 c 37.870154,0 75.740317,0 113.610467,0 70.05978,0 140.11957,0 210.17935,0 24.6156,0 49.2312,0 73.8468,0 7.57403,0 15.14806,0 22.7221,0 0.63116,0 1.26233,0 1.8935,0 0.63117,0 1.89351,-0.63117 1.89351,0 0,0.63117 -1.26234,0 -1.89351,0"
       id="path2995"
       inkscape:connector-curvature="0" />
    <path
       style="fill:none;stroke:#000000;stroke-width:1px;stroke-linecap:butt;stroke-linejoin:miter;stroke-opacity:1"
       d="m 26.509108,553.4555 c 3.155846,-0.63117 6.256322,-1.67942 9.467538,-1.8935 6.297713,-0.41985 12.623385,0 18.935077,0 9.467539,0 18.935077,0 28.402615,0 30.296122,0 60.592242,0 90.888372,0 95.93772,0 191.87544,0 287.81317,0"
       id="path2997"
       inkscape:connector-curvature="0" />
    <path
       style="fill:none;stroke:#000000;stroke-width:1px;stroke-linecap:butt;stroke-linejoin:miter;stroke-opacity:1"
       d="m 28.402615,606.7932 c 39.763662,0 79.527325,0 119.290985,0 73.8468,0 147.6936,0 221.5404,0 25.24677,0 50.49354,0 75.74031,0 6.31169,0 12.62338,0 18.93507,0 2.52468,0 5.04936,0 7.57404,0 0.63116,0 -1.26234,0 -1.89351,0"
       id="path2999"
       inkscape:connector-curvature="0" />
    <path
       style="fill:none;stroke:#000000;stroke-width:1px;stroke-linecap:butt;stroke-linejoin:miter;stroke-opacity:1"
       d="m 75.337692,365.01646 c 0,213.3352 0,426.6704 0,640.00564"
       id="path3001"
       inkscape:connector-curvature="0" />
    <path
       style="fill:none;stroke:#000000;stroke-width:1px;stroke-linecap:butt;stroke-linejoin:miter;stroke-opacity:1"
       d="m 118.14293,361.22944 c 0.17929,4.79452 -3.03161,8.72209 -3.78702,13.25456 -0.31129,1.86774 0,3.78701 0,5.68052 0,6.31169 0,12.62338 0,18.93508 0,13.88572 0,27.77144 0,41.65717 0,46.07535 0,92.1507 0,138.22606 0,136.96372 0,273.92744 0,410.89117"
       id="path3003"
       inkscape:connector-curvature="0" />
    <path
       style="fill:none;stroke:#000000;stroke-width:1px;stroke-linecap:butt;stroke-linejoin:miter;stroke-opacity:1"
       d="m 155.6936,357.44242 c 0,213.3352 0,426.6704 0,640.0056"
       id="path3005"
       inkscape:connector-curvature="0" />
    <path
       style="fill:none;stroke:#000000;stroke-width:1px;stroke-linecap:butt;stroke-linejoin:miter;stroke-opacity:1"
       d="m 201.45726,359.33594 c 0,213.3352 0,426.6704 0,640.0056"
       id="path3007"
       inkscape:connector-curvature="0" />
    <flowRoot
       xml:space="preserve"
       id="flowRoot3009"
       style="font-size:40px;font-style:normal;font-weight:normal;line-height:125%;letter-spacing:0px;word-spacing:0px;fill:#000000;fill-opacity:1;stroke:none;font-family:Sans"
       transform="matrix(0,1,-1,0,344.62557,842.14117)"><flowRegion
         id="flowRegion3011"><rect
           id="rect3013"
           width="285.91965"
           height="198.81831"
           x="-479.05743"
           y="272.68799" /></flowRegion><flowPara
         id="flowPara3015"
         style="font-style:normal;font-variant:normal;font-weight:normal;font-stretch:normal;font-family:American Typewriter;-inkscape-font-specification:American Typewriter">Hole</flowPara></flowRoot>    <flowRoot
       xml:space="preserve"
       id="flowRoot3017"
       style="font-size:40px;font-style:normal;font-variant:normal;font-weight:normal;font-stretch:normal;line-height:125%;letter-spacing:0px;word-spacing:0px;fill:#000000;fill-opacity:1;stroke:none;font-family:American Typewriter;-inkscape-font-specification:American Typewriter"
       transform="translate(427.18729,179.42981)"><flowRegion
         id="flowRegion3019"><rect
           id="rect3021"
           width="238.58197"
           height="166.62868"
           x="-395.7431"
           y="278.36853"
           style="font-style:normal;font-variant:normal;font-weight:normal;font-stretch:normal;font-family:American Typewriter;-inkscape-font-specification:American Typewriter" /></flowRegion><flowPara
         id="flowPara3023">1</flowPara></flowRoot>    <path
       style="fill:none;stroke:#000000;stroke-width:1px;stroke-linecap:butt;stroke-linejoin:miter;stroke-opacity:1"
       d="m 241.91966,357.44243 c 0,212.07286 0,424.14572 0,636.21858"
       id="path3025"
       inkscape:connector-curvature="0" />
    <path
       style="fill:none;stroke:#000000;stroke-width:1px;stroke-linecap:butt;stroke-linejoin:miter;stroke-opacity:1"
       d="m 435.50677,353.65541 c 0,64.37926 0,128.75852 0,193.13779 0,106.03643 0,212.07286 0,318.10929 0,34.08314 0,68.16628 0,102.24941 0,10.72988 0,21.45976 0,32.18963 0,3.15587 0,6.31167 0,9.46757 0,0.6311 0.63117,1.8935 0,1.8935 -0.63117,0 0,-1.2624 0,-1.8935"
       id="path3027"
       inkscape:connector-curvature="0" />
    <flowRoot
       transform="translate(427.18729,223.42981)"
       style="font-size:40px;font-style:normal;font-variant:normal;font-weight:normal;font-stretch:normal;line-height:125%;letter-spacing:0px;word-spacing:0px;fill:#000000;fill-opacity:1;stroke:none;font-family:American Typewriter;-inkscape-font-specification:American Typewriter"
       id="flowRoot3029"
       xml:space="preserve"><flowRegion
         id="flowRegion3031"><rect
           style="font-style:normal;font-variant:normal;font-weight:normal;font-stretch:normal;font-family:American Typewriter;-inkscape-font-specification:American Typewriter"
           y="278.36853"
           x="-395.7431"
           height="166.62868"
           width="238.58197"
           id="rect3033" /></flowRegion><flowPara
         id="flowPara3035">2</flowPara></flowRoot>    <flowRoot
       xml:space="preserve"
       id="flowRoot3037"
       style="font-size:40px;font-style:normal;font-variant:normal;font-weight:normal;font-stretch:normal;line-height:125%;letter-spacing:0px;word-spacing:0px;fill:#000000;fill-opacity:1;stroke:none;font-family:American Typewriter;-inkscape-font-specification:American Typewriter"
       transform="translate(427.18729,275.42981)"><flowRegion
         id="flowRegion3039"><rect
           id="rect3041"
           width="238.58197"
           height="166.62868"
           x="-395.7431"
           y="278.36853"
           style="font-style:normal;font-variant:normal;font-weight:normal;font-stretch:normal;font-family:American Typewriter;-inkscape-font-specification:American Typewriter" /></flowRegion><flowPara
         id="flowPara3043">3</flowPara></flowRoot>    <flowRoot
       transform="translate(427.18729,325.42981)"
       style="font-size:40px;font-style:normal;font-variant:normal;font-weight:normal;font-stretch:normal;line-height:125%;letter-spacing:0px;word-spacing:0px;fill:#000000;fill-opacity:1;stroke:none;font-family:American Typewriter;-inkscape-font-specification:American Typewriter"
       id="flowRoot3045"
       xml:space="preserve"><flowRegion
         id="flowRegion3047"><rect
           style="font-style:normal;font-variant:normal;font-weight:normal;font-stretch:normal;font-family:American Typewriter;-inkscape-font-specification:American Typewriter"
           y="278.36853"
           x="-395.7431"
           height="166.62868"
           width="238.58197"
           id="rect3049" /></flowRegion><flowPara
         id="flowPara3051">4</flowPara></flowRoot>    <flowRoot
       xml:space="preserve"
       id="flowRoot3053"
       style="font-size:40px;font-style:normal;font-variant:normal;font-weight:normal;font-stretch:normal;line-height:125%;letter-spacing:0px;word-spacing:0px;fill:#000000;fill-opacity:1;stroke:none;font-family:American Typewriter;-inkscape-font-specification:American Typewriter"
       transform="translate(427.18729,380.25839)"><flowRegion
         id="flowRegion3055"><rect
           id="rect3057"
           width="238.58197"
           height="166.62868"
           x="-395.7431"
           y="278.36853"
           style="font-style:normal;font-variant:normal;font-weight:normal;font-stretch:normal;font-family:American Typewriter;-inkscape-font-specification:American Typewriter" /></flowRegion><flowPara
         id="flowPara3059">5</flowPara></flowRoot>    <flowRoot
       transform="translate(427.18729,435.61944)"
       style="font-size:40px;font-style:normal;font-variant:normal;font-weight:normal;font-stretch:normal;line-height:125%;letter-spacing:0px;word-spacing:0px;fill:#000000;fill-opacity:1;stroke:none;font-family:American Typewriter;-inkscape-font-specification:American Typewriter"
       id="flowRoot3061"
       xml:space="preserve"><flowRegion
         id="flowRegion3063"><rect
           style="font-style:normal;font-variant:normal;font-weight:normal;font-stretch:normal;font-family:American Typewriter;-inkscape-font-specification:American Typewriter"
           y="278.36853"
           x="-395.7431"
           height="166.62868"
           width="238.58197"
           id="rect3065" /></flowRegion><flowPara
         id="flowPara3067">6</flowPara></flowRoot>    <flowRoot
       xml:space="preserve"
       id="flowRoot3069"
       style="font-size:40px;font-style:normal;font-variant:normal;font-weight:normal;font-stretch:normal;line-height:125%;letter-spacing:0px;word-spacing:0px;fill:#000000;fill-opacity:1;stroke:none;font-family:American Typewriter;-inkscape-font-specification:American Typewriter"
       transform="translate(427.18729,498.55452)"><flowRegion
         id="flowRegion3071"><rect
           id="rect3073"
           width="238.58197"
           height="166.62868"
           x="-395.7431"
           y="278.36853"
           style="font-style:normal;font-variant:normal;font-weight:normal;font-stretch:normal;font-family:American Typewriter;-inkscape-font-specification:American Typewriter" /></flowRegion><flowPara
         id="flowPara3075">7</flowPara></flowRoot>    <flowRoot
       transform="translate(427.18729,557.42981)"
       style="font-size:40px;font-style:normal;font-variant:normal;font-weight:normal;font-stretch:normal;line-height:125%;letter-spacing:0px;word-spacing:0px;fill:#000000;fill-opacity:1;stroke:none;font-family:American Typewriter;-inkscape-font-specification:American Typewriter"
       id="flowRoot3077"
       xml:space="preserve"><flowRegion
         id="flowRegion3079"><rect
           style="font-style:normal;font-variant:normal;font-weight:normal;font-stretch:normal;font-family:American Typewriter;-inkscape-font-specification:American Typewriter"
           y="278.36853"
           x="-395.7431"
           height="166.62868"
           width="238.58197"
           id="rect3081" /></flowRegion><flowPara
         id="flowPara3083">8</flowPara></flowRoot>    <flowRoot
       xml:space="preserve"
       id="flowRoot3085"
       style="font-size:40px;font-style:normal;font-variant:normal;font-weight:normal;font-stretch:normal;line-height:125%;letter-spacing:0px;word-spacing:0px;fill:#000000;fill-opacity:1;stroke:none;font-family:American Typewriter;-inkscape-font-specification:American Typewriter"
       transform="translate(427.18729,626.10519)"><flowRegion
         id="flowRegion3087"><rect
           id="rect3089"
           width="238.58197"
           height="166.62868"
           x="-395.7431"
           y="278.36853"
           style="font-style:normal;font-variant:normal;font-weight:normal;font-stretch:normal;font-family:American Typewriter;-inkscape-font-specification:American Typewriter" /></flowRegion><flowPara
         id="flowPara3091">9</flowPara></flowRoot>    <path
       style="fill:none;stroke:#000000;stroke-width:1px;stroke-linecap:butt;stroke-linejoin:miter;stroke-opacity:1"
       d="m 22.722092,662.29716 c 9.312685,-3.47973 18.838235,-1.02402 28.402616,-1.89351 28.998227,-2.6362 -12.362873,-1.8935 20.828584,-1.8935 2.910147,0 13.066969,0.41621 15.148062,0 1.38393,-0.27679 2.403085,-1.61673 3.787015,-1.89351 1.856737,-0.37135 3.787016,0 5.680523,0 5.680528,0 11.361048,0 17.041568,0 17.04157,0 34.08314,0 51.12471,0 6.94286,0 13.88572,0 20.82858,0 2.52468,0 5.06885,0.31315 7.57403,0 2.58229,-0.32279 4.99781,-1.52548 7.57404,-1.89351 1.87447,-0.26778 3.78701,0 5.68052,0 1.89351,0 3.78701,0 5.68052,0 7.57403,0 15.14806,0 22.72209,0 20.19742,0 40.39483,0 60.59225,0 58.69874,0 117.39748,0 176.09622,0"
       id="path3093"
       inkscape:connector-curvature="0" />
    <path
       style="fill:none;stroke:#000000;stroke-width:1px;stroke-linecap:butt;stroke-linejoin:miter;stroke-opacity:1"
       d="m 22.722092,719.31538 c 148.324768,0 296.649538,0 444.974308,0"
       id="path3095"
       inkscape:connector-curvature="0" />
    <path
       style="fill:none;stroke:#000000;stroke-width:1px;stroke-linecap:butt;stroke-linejoin:miter;stroke-opacity:1"
       d="m 22.722092,779.90763 c 27.771446,0 55.542893,0 83.314338,0 83.94551,0 167.89102,0 251.83652,0 24.6156,0 49.2312,0 73.8468,0 8.2052,0 16.4104,0 24.6156,0 2.52468,0 5.04936,0 7.57403,0 0.63117,0 1.89351,-0.63117 1.89351,0 0,0.63117 -1.26234,0 -1.89351,0"
       id="path3097"
       inkscape:connector-curvature="0" />
    <path
       style="fill:none;stroke:#000000;stroke-width:1px;stroke-linecap:butt;stroke-linejoin:miter;stroke-opacity:1"
       d="m 20.828585,838.3336 c 2.524677,-0.63117 4.991749,-1.57073 7.57403,-1.89351 2.505181,-0.31315 5.049354,0 7.574031,0 2.524677,0 5.049354,0 7.574031,0 14.516892,0 29.033785,0 43.550677,0 33.451966,0 66.903936,0 100.355906,0 6.31169,0 12.64519,0.52416 18.93508,0 3.82599,-0.31883 7.53505,-1.57468 11.36104,-1.89351 3.77394,-0.31449 7.57404,0 11.36105,0 4.41819,0 8.83637,0 13.25455,0 22.7221,0 45.44419,0 68.16628,0 56.17406,0 112.34812,0 168.52219,0"
       id="path3099"
       inkscape:connector-curvature="0" />
    <path
       style="fill:none;stroke:#000000;stroke-width:1px;stroke-linecap:butt;stroke-linejoin:miter;stroke-opacity:1"
       d="m 18.935077,902.55965 c 105.405263,0 210.810523,0 316.215783,0 19.56625,0 39.13249,0 58.69874,0 8.2052,0 16.4104,0 24.6156,0 1.89351,0 3.82379,0.37135 5.68052,0 1.38393,-0.27678 2.41782,-1.55121 3.78702,-1.8935 1.22465,-0.30617 2.52468,0 3.78701,0 3.15585,0 6.3117,0 9.46754,0 10.72988,0 21.45976,0 32.18963,0"
       id="path3101"
       inkscape:connector-curvature="0" />
    <path
       style="fill:none;stroke:#000000;stroke-width:1px;stroke-linecap:butt;stroke-linejoin:miter;stroke-opacity:1"
       d="m 18.935077,664.64409 c 3.155846,-0.63117 6.268878,-1.5381 9.467538,-1.89351 2.509236,-0.2788 5.049354,0 7.574031,0 3.155846,0 6.311692,0 9.467539,0 10.098707,0 20.197415,0 30.296123,0 3.787015,0 7.57403,0 11.361046,0 1.262338,0 2.562367,0.30617 3.787015,0 1.369199,-0.3423 2.448104,-1.4472 3.787016,-1.8935 1.226835,-0.40895 7.917325,0 9.467535,0 8.2052,0 16.4104,0 24.6156,0 20.82859,0 41.65717,0 62.48576,0 65.01043,0 130.02086,0 195.03129,0 24.6156,0 49.2312,0 73.8468,0 3.78701,0 7.57403,0 11.36105,0 0.63116,0 1.4472,0.4463 1.8935,0 0.44631,-0.44631 -0.4463,-1.44721 0,-1.89351 0.44631,-0.4463 1.26234,0 1.89351,0 0.63117,0 1.26234,0 1.89351,0"
       id="path3103"
       inkscape:connector-curvature="0"
       transform="translate(0,287.35975)" />
    <path
       inkscape:connector-curvature="0"
       id="path3105"
       d="m 309.19757,365.01646 c 0,213.3352 0,426.6704 0,640.00564"
       style="fill:none;stroke:#000000;stroke-width:1px;stroke-linecap:butt;stroke-linejoin:miter;stroke-opacity:1" />
    <flowRoot
       transform="matrix(0,1,-1,0,563.33739,842.14117)"
       style="font-size:40px;font-style:normal;font-weight:normal;line-height:125%;letter-spacing:0px;word-spacing:0px;fill:#000000;fill-opacity:1;stroke:none;font-family:Sans"
       id="flowRoot3107"
       xml:space="preserve"><flowRegion
         id="flowRegion3109"><rect
           y="272.68799"
           x="-479.05743"
           height="198.81831"
           width="285.91965"
           id="rect3111" /></flowRegion><flowPara
         style="font-style:normal;font-variant:normal;font-weight:normal;font-stretch:normal;font-family:American Typewriter;-inkscape-font-specification:American Typewriter"
         id="flowPara3113">Hole</flowPara></flowRoot>    <flowRoot
       transform="translate(645.89911,179.42981)"
       style="font-size:40px;font-style:normal;font-variant:normal;font-weight:normal;font-stretch:normal;line-height:125%;letter-spacing:0px;word-spacing:0px;fill:#000000;fill-opacity:1;stroke:none;font-family:American Typewriter;-inkscape-font-specification:American Typewriter"
       id="flowRoot3115"
       xml:space="preserve"><flowRegion
         id="flowRegion3117"><rect
           style="font-style:normal;font-variant:normal;font-weight:normal;font-stretch:normal;font-family:American Typewriter;-inkscape-font-specification:American Typewriter"
           y="278.36853"
           x="-395.7431"
           height="166.62868"
           width="238.58197"
           id="rect3119" /></flowRegion><flowPara
         id="flowPara3121">10</flowPara></flowRoot>    <flowRoot
       xml:space="preserve"
       id="flowRoot3123"
       style="font-size:40px;font-style:normal;font-variant:normal;font-weight:normal;font-stretch:normal;line-height:125%;letter-spacing:0px;word-spacing:0px;fill:#000000;fill-opacity:1;stroke:none;font-family:American Typewriter;-inkscape-font-specification:American Typewriter"
       transform="translate(645.89911,223.42981)"><flowRegion
         id="flowRegion3125"><rect
           id="rect3127"
           width="238.58197"
           height="166.62868"
           x="-395.7431"
           y="278.36853"
           style="font-style:normal;font-variant:normal;font-weight:normal;font-stretch:normal;font-family:American Typewriter;-inkscape-font-specification:American Typewriter" /></flowRegion><flowPara
         id="flowPara3129">11</flowPara></flowRoot>    <flowRoot
       transform="translate(645.89911,275.42981)"
       style="font-size:40px;font-style:normal;font-variant:normal;font-weight:normal;font-stretch:normal;line-height:125%;letter-spacing:0px;word-spacing:0px;fill:#000000;fill-opacity:1;stroke:none;font-family:American Typewriter;-inkscape-font-specification:American Typewriter"
       id="flowRoot3131"
       xml:space="preserve"><flowRegion
         id="flowRegion3133"><rect
           style="font-style:normal;font-variant:normal;font-weight:normal;font-stretch:normal;font-family:American Typewriter;-inkscape-font-specification:American Typewriter"
           y="278.36853"
           x="-395.7431"
           height="166.62868"
           width="238.58197"
           id="rect3135" /></flowRegion><flowPara
         id="flowPara3137">12</flowPara></flowRoot>    <flowRoot
       xml:space="preserve"
       id="flowRoot3139"
       style="font-size:40px;font-style:normal;font-variant:normal;font-weight:normal;font-stretch:normal;line-height:125%;letter-spacing:0px;word-spacing:0px;fill:#000000;fill-opacity:1;stroke:none;font-family:American Typewriter;-inkscape-font-specification:American Typewriter"
       transform="translate(645.89911,325.42981)"><flowRegion
         id="flowRegion3141"><rect
           id="rect3143"
           width="238.58197"
           height="166.62868"
           x="-395.7431"
           y="278.36853"
           style="font-style:normal;font-variant:normal;font-weight:normal;font-stretch:normal;font-family:American Typewriter;-inkscape-font-specification:American Typewriter" /></flowRegion><flowPara
         id="flowPara3145">13</flowPara></flowRoot>    <flowRoot
       transform="translate(645.89911,380.25839)"
       style="font-size:40px;font-style:normal;font-variant:normal;font-weight:normal;font-stretch:normal;line-height:125%;letter-spacing:0px;word-spacing:0px;fill:#000000;fill-opacity:1;stroke:none;font-family:American Typewriter;-inkscape-font-specification:American Typewriter"
       id="flowRoot3147"
       xml:space="preserve"><flowRegion
         id="flowRegion3149"><rect
           style="font-style:normal;font-variant:normal;font-weight:normal;font-stretch:normal;font-family:American Typewriter;-inkscape-font-specification:American Typewriter"
           y="278.36853"
           x="-395.7431"
           height="166.62868"
           width="238.58197"
           id="rect3151" /></flowRegion><flowPara
         id="flowPara3153">14</flowPara></flowRoot>    <flowRoot
       xml:space="preserve"
       id="flowRoot3155"
       style="font-size:40px;font-style:normal;font-variant:normal;font-weight:normal;font-stretch:normal;line-height:125%;letter-spacing:0px;word-spacing:0px;fill:#000000;fill-opacity:1;stroke:none;font-family:American Typewriter;-inkscape-font-specification:American Typewriter"
       transform="translate(645.89911,435.61944)"><flowRegion
         id="flowRegion3157"><rect
           id="rect3159"
           width="238.58197"
           height="166.62868"
           x="-395.7431"
           y="278.36853"
           style="font-style:normal;font-variant:normal;font-weight:normal;font-stretch:normal;font-family:American Typewriter;-inkscape-font-specification:American Typewriter" /></flowRegion><flowPara
         id="flowPara3161">15</flowPara></flowRoot>    <flowRoot
       transform="translate(645.89911,498.55452)"
       style="font-size:40px;font-style:normal;font-variant:normal;font-weight:normal;font-stretch:normal;line-height:125%;letter-spacing:0px;word-spacing:0px;fill:#000000;fill-opacity:1;stroke:none;font-family:American Typewriter;-inkscape-font-specification:American Typewriter"
       id="flowRoot3163"
       xml:space="preserve"><flowRegion
         id="flowRegion3165"><rect
           style="font-style:normal;font-variant:normal;font-weight:normal;font-stretch:normal;font-family:American Typewriter;-inkscape-font-specification:American Typewriter"
           y="278.36853"
           x="-395.7431"
           height="166.62868"
           width="238.58197"
           id="rect3167" /></flowRegion><flowPara
         id="flowPara3169">16</flowPara></flowRoot>    <flowRoot
       xml:space="preserve"
       id="flowRoot3171"
       style="font-size:40px;font-style:normal;font-variant:normal;font-weight:normal;font-stretch:normal;line-height:125%;letter-spacing:0px;word-spacing:0px;fill:#000000;fill-opacity:1;stroke:none;font-family:American Typewriter;-inkscape-font-specification:American Typewriter"
       transform="translate(645.89911,557.42981)"><flowRegion
         id="flowRegion3173"><rect
           id="rect3175"
           width="238.58197"
           height="166.62868"
           x="-395.7431"
           y="278.36853"
           style="font-style:normal;font-variant:normal;font-weight:normal;font-stretch:normal;font-family:American Typewriter;-inkscape-font-specification:American Typewriter" /></flowRegion><flowPara
         id="flowPara3177">17</flowPara></flowRoot>    <flowRoot
       transform="translate(645.89911,626.10519)"
       style="font-size:40px;font-style:normal;font-variant:normal;font-weight:normal;font-stretch:normal;line-height:125%;letter-spacing:0px;word-spacing:0px;fill:#000000;fill-opacity:1;stroke:none;font-family:American Typewriter;-inkscape-font-specification:American Typewriter"
       id="flowRoot3179"
       xml:space="preserve"><flowRegion
         id="flowRegion3181"><rect
           style="font-style:normal;font-variant:normal;font-weight:normal;font-stretch:normal;font-family:American Typewriter;-inkscape-font-specification:American Typewriter"
           y="278.36853"
           x="-395.7431"
           height="166.62868"
           width="238.58197"
           id="rect3183" /></flowRegion><flowPara
         id="flowPara3185">18</flowPara></flowRoot>    <path
       style="fill:none;stroke:#000000;stroke-width:1px;stroke-linecap:butt;stroke-linejoin:miter;stroke-opacity:1"
       d="m 348.40541,366.90997 c 0,210.17935 0,420.3587 0,630.53806"
       id="path3189"
       inkscape:connector-curvature="0" />
    <path
       style="fill:none;stroke:#000000;stroke-width:1px;stroke-linecap:butt;stroke-linejoin:miter;stroke-opacity:1"
       d="m 391.95609,353.65541 c 0,226.58976 0,453.17951 0,679.76929"
       id="path3191"
       inkscape:connector-curvature="0" />
  </g>
</svg>
